<?xml version="1.0" encoding="utf-8"?>
<!-- Generator: Adobe Illustrator 26.0.2, SVG Export Plug-In . SVG Version: 6.00 Build 0)  -->
<svg version="1.1" id="Слой_1" xmlns="http://www.w3.org/2000/svg" xmlns:xlink="http://www.w3.org/1999/xlink" x="0px" y="0px"
	 viewBox="0 0 286 287.33" style="enable-background:new 0 0 286 287.33;" xml:space="preserve">
<style type="text/css">
	.st0{stroke:#FFFFFF;stroke-miterlimit:10;}
	.st1{fill:#FFFFFF;stroke:#000000;stroke-miterlimit:10;}
	.st2{fill:none;stroke:#FFFFFF;stroke-miterlimit:10;}
	.st3{fill:#FFFFFF;}
	.st4{fill:none;stroke:#000000;stroke-miterlimit:10;}
	.st5{stroke:#000000;stroke-miterlimit:10;}
	.st6{fill:#FFFFFF;stroke:#000000;stroke-width:0.5;stroke-miterlimit:10;}
	.st7{stroke:#FFFFFF;stroke-width:0.2;stroke-miterlimit:10;}
	.st8{fill:#FFFFFF;stroke:#000000;stroke-width:0.2;stroke-miterlimit:10;}
	.st9{fill:none;stroke:#FFFFFF;stroke-width:0.2;stroke-miterlimit:10;}
	.st10{fill:none;stroke:#000000;stroke-width:0.2;stroke-miterlimit:10;}
	.st11{stroke:#000000;stroke-width:0.2;stroke-miterlimit:10;}
	.st12{fill:#FFFFFF;stroke:#000000;stroke-width:0.1;stroke-miterlimit:10;}
</style>
<rect x="81.71" y="81.89" transform="matrix(0.7071 0.7071 -0.7071 0.7071 162.8404 -67.3447)" class="st0" width="162" height="162"/>
<rect x="108.71" y="108.89" transform="matrix(0.7071 0.7071 -0.7071 0.7071 162.8404 -67.3447)" class="st1" width="108" height="108"/>
<rect x="135.71" y="65.23" class="st0" width="54" height="72"/>
<rect x="148.31" y="65.23" class="st0" width="28.8" height="72"/>
<g>
	<path d="M189.71,47.23c0,9.9-8.1,18-18,18h-18c-9.9,0-18-8.1-18-18v-18c0-9.9,8.1-18,18-18h18c9.9,0,18,8.1,18,18V47.23z"/>
	<path class="st2" d="M189.71,47.23c0,9.9-8.1,18-18,18h-18c-9.9,0-18-8.1-18-18v-18c0-9.9,8.1-18,18-18h18c9.9,0,18,8.1,18,18
		V47.23z"/>
</g>
<g>
	<path class="st3" d="M193.31,54.7c0,1.98-1.62,3.6-3.6,3.6h-54c-1.98,0-3.6-1.62-3.6-3.6l0,0c0-1.98,1.62-3.6,3.6-3.6h54
		C191.69,51.1,193.31,52.72,193.31,54.7L193.31,54.7z"/>
	<path class="st4" d="M193.31,54.7c0,1.98-1.62,3.6-3.6,3.6h-54c-1.98,0-3.6-1.62-3.6-3.6l0,0c0-1.98,1.62-3.6,3.6-3.6h54
		C191.69,51.1,193.31,52.72,193.31,54.7L193.31,54.7z"/>
</g>
<g>
	<path class="st3" d="M193.31,61.9c0,1.98-1.62,3.6-3.6,3.6h-54c-1.98,0-3.6-1.62-3.6-3.6s1.62-3.6,3.6-3.6h54
		C191.69,58.3,193.31,59.92,193.31,61.9z"/>
	<path class="st4" d="M193.31,61.9c0,1.98-1.62,3.6-3.6,3.6h-54c-1.98,0-3.6-1.62-3.6-3.6s1.62-3.6,3.6-3.6h54
		C191.69,58.3,193.31,59.92,193.31,61.9z"/>
</g>
<polygon class="st1" points="162.71,183.23 136.21,137.23 189.21,137.23 "/>
<polygon class="st5" points="162.71,183.25 154.76,169.45 170.66,169.45 "/>
<circle class="st1" cx="69.7" cy="162.89" r="9.82"/>
<polygon class="st1" points="162.71,246.04 165.81,252.31 172.72,253.31 167.72,258.19 168.9,265.08 162.71,261.83 156.53,265.08 
	157.71,258.19 152.7,253.31 159.62,252.31 "/>
<polygon class="st1" points="212.41,197.9 216.38,205.15 223.63,209.11 216.38,213.08 212.41,220.32 208.45,213.08 201.2,209.11 
	208.45,205.15 "/>
<polygon class="st1" points="260.05,151.89 260.18,158.51 266.75,157.71 262.16,162.48 267.38,166.56 260.76,166.69 261.56,173.26 
	256.79,168.68 252.71,173.89 252.58,167.27 246.01,168.08 250.6,163.3 245.38,159.23 252,159.09 251.19,152.52 255.97,157.11 "/>
<path class="st6" d="M118.88,212.19c-4.25,4.11-11.03,4-15.14-0.25c-3.29-3.4-3.2-8.82,0.2-12.11c2.72-2.63,7.06-2.56,9.69,0.16
	c2.11,2.18,2.05,5.65-0.13,7.75c-1.74,1.68-4.52,1.64-6.2-0.1c-1.35-1.39-1.31-3.61,0.08-4.96c1.11-1.08,2.89-1.05,3.97,0.07
	c0.86,0.89,0.84,2.31-0.05,3.18c-0.71,0.69-1.85,0.67-2.54-0.04c-0.55-0.57-0.54-1.48,0.03-2.03"/>
<path class="st4" d="M162.62,183.28c0.49,1.27,0.84,3.01-0.3,3.75c-0.52,0.34-1.18,0.32-1.79,0.28c-2.19-0.14-4.36-0.48-6.55-0.41
	s-4.45,0.61-6.13,2.01c-1.68,1.4-2.64,3.81-1.89,5.87c0.2,0.55,0.54,1.09,1.08,1.33c0.4,0.18,0.85,0.17,1.28,0.16
	c4.95-0.11,10.11-1.64,15.06-1.83c6-0.22,6.35,1.57,8.23,3.96c0.76,0.96,1.14,2.19,1.21,3.42c0.02,0.31,0.02,0.63-0.1,0.91
	c-0.16,0.39-0.52,0.66-0.87,0.89c-5.01,3.25-16.96-0.9-17.06,5.1"/>
<rect x="86.09" y="42.42" transform="matrix(0.7071 0.7071 -0.7071 0.7071 71.4106 -55.1609)" class="st0" width="32.4" height="32.4"/>
<rect x="91.49" y="47.82" transform="matrix(0.7071 0.7071 -0.7071 0.7071 71.4106 -55.1609)" class="st1" width="21.6" height="21.6"/>
<rect x="96.89" y="39.09" class="st0" width="10.8" height="14.4"/>
<rect x="99.41" y="39.09" class="st0" width="5.76" height="14.4"/>
<g>
	<circle cx="102.29" cy="33.69" r="5.4"/>
	<circle class="st2" cx="102.29" cy="33.69" r="5.4"/>
</g>
<g>
	<path class="st3" d="M108.41,36.98c0,0.4-1.62,0.72-3.6,0.72h-5.04c-1.98,0-3.6-0.32-3.6-0.72s1.62-0.72,3.6-0.72h5.04
		C106.79,36.26,108.41,36.59,108.41,36.98z"/>
	<path class="st4" d="M108.41,36.98c0,0.4-1.62,0.72-3.6,0.72h-5.04c-1.98,0-3.6-0.32-3.6-0.72s1.62-0.72,3.6-0.72h5.04
		C106.79,36.26,108.41,36.59,108.41,36.98z"/>
</g>
<g>
	<path class="st3" d="M108.41,38.42c0,0.4-1.62,0.72-3.6,0.72h-5.04c-1.98,0-3.6-0.32-3.6-0.72s1.62-0.72,3.6-0.72h5.04
		C106.79,37.7,108.41,38.03,108.41,38.42z"/>
	<path class="st4" d="M108.41,38.42c0,0.4-1.62,0.72-3.6,0.72h-5.04c-1.98,0-3.6-0.32-3.6-0.72s1.62-0.72,3.6-0.72h5.04
		C106.79,37.7,108.41,38.03,108.41,38.42z"/>
</g>
<polygon class="st1" points="102.29,62.69 96.99,53.49 107.59,53.49 "/>
<polygon class="st5" points="102.29,62.69 100.7,59.93 103.88,59.93 "/>
<circle class="st1" cx="83.69" cy="58.62" r="1.96"/>
<polygon class="st1" points="102.29,75.25 102.91,76.5 104.29,76.7 103.29,77.68 103.53,79.06 102.29,78.41 101.05,79.06 
	101.29,77.68 100.29,76.7 101.67,76.5 "/>
<polygon class="st1" points="112.23,65.62 113.02,67.07 114.47,67.86 113.02,68.66 112.23,70.11 111.44,68.66 109.99,67.86 
	111.44,67.07 "/>
<polygon class="st1" points="121.76,56.42 121.78,57.74 123.1,57.58 122.18,58.54 123.22,59.35 121.9,59.38 122.06,60.69 
	121.11,59.78 120.29,60.82 120.26,59.5 118.95,59.66 119.87,58.7 118.82,57.89 120.15,57.86 119.99,56.55 120.94,57.46 "/>
<path class="st6" d="M93.52,68.48c-0.85,0.82-2.21,0.8-3.03-0.05c-0.66-0.68-0.64-1.76,0.04-2.42c0.54-0.53,1.41-0.51,1.94,0.03
	c0.42,0.44,0.41,1.13-0.03,1.55c-0.35,0.34-0.9,0.33-1.24-0.02c-0.27-0.28-0.26-0.72,0.02-0.99c0.22-0.22,0.58-0.21,0.79,0.01
	c0.17,0.18,0.17,0.46-0.01,0.64c-0.14,0.14-0.37,0.13-0.51-0.01c-0.11-0.11-0.11-0.3,0.01-0.41"/>
<path class="st4" d="M102.27,62.7c0.1,0.25,0.17,0.6-0.06,0.75c-0.1,0.07-0.24,0.06-0.36,0.06c-0.44-0.03-0.87-0.1-1.31-0.08
	c-0.44,0.01-0.89,0.12-1.23,0.4c-0.34,0.28-0.53,0.76-0.38,1.17c0.04,0.11,0.11,0.22,0.22,0.27c0.08,0.04,0.17,0.03,0.26,0.03
	c0.99-0.02,2.02-0.33,3.01-0.37c1.2-0.04,1.27,0.31,1.65,0.79c0.15,0.19,0.23,0.44,0.24,0.68c0,0.06,0,0.13-0.02,0.18
	c-0.03,0.08-0.1,0.13-0.17,0.18c-1,0.65-3.39-0.18-3.41,1.02"/>
<rect x="22.19" y="42.33" transform="matrix(0.7071 0.7071 -0.7071 0.7071 52.6312 -10.0031)" class="st7" width="32.4" height="32.4"/>
<rect x="27.59" y="47.73" transform="matrix(0.7071 0.7071 -0.7071 0.7071 52.6312 -10.0031)" class="st8" width="21.6" height="21.6"/>
<rect x="32.99" y="39" class="st7" width="10.8" height="14.4"/>
<rect x="35.51" y="39" class="st7" width="5.76" height="14.4"/>
<g>
	<path d="M43.79,35.4c0,1.98-1.62,3.6-3.6,3.6h-3.6c-1.98,0-3.6-1.62-3.6-3.6v-3.6c0-1.98,1.62-3.6,3.6-3.6h3.6
		c1.98,0,3.6,1.62,3.6,3.6V35.4z"/>
	<path class="st9" d="M43.79,35.4c0,1.98-1.62,3.6-3.6,3.6h-3.6c-1.98,0-3.6-1.62-3.6-3.6v-3.6c0-1.98,1.62-3.6,3.6-3.6h3.6
		c1.98,0,3.6,1.62,3.6,3.6V35.4z"/>
</g>
<g>
	<path class="st3" d="M44.51,36.89c0,0.4-0.32,0.72-0.72,0.72h-10.8c-0.4,0-0.72-0.32-0.72-0.72l0,0c0-0.4,0.32-0.72,0.72-0.72h10.8
		C44.19,36.17,44.51,36.5,44.51,36.89L44.51,36.89z"/>
	<path class="st10" d="M44.51,36.89c0,0.4-0.32,0.72-0.72,0.72h-10.8c-0.4,0-0.72-0.32-0.72-0.72l0,0c0-0.4,0.32-0.72,0.72-0.72
		h10.8C44.19,36.17,44.51,36.5,44.51,36.89L44.51,36.89z"/>
</g>
<g>
	<path class="st3" d="M44.51,38.33c0,0.4-0.32,0.72-0.72,0.72h-10.8c-0.4,0-0.72-0.32-0.72-0.72s0.32-0.72,0.72-0.72h10.8
		C44.19,37.61,44.51,37.94,44.51,38.33z"/>
	<path class="st10" d="M44.51,38.33c0,0.4-0.32,0.72-0.72,0.72h-10.8c-0.4,0-0.72-0.32-0.72-0.72s0.32-0.72,0.72-0.72h10.8
		C44.19,37.61,44.51,37.94,44.51,38.33z"/>
</g>
<polygon class="st8" points="38.39,62.6 33.09,53.4 43.69,53.4 "/>
<polygon class="st11" points="38.39,62.6 36.8,59.84 39.98,59.84 "/>
<circle class="st8" cx="19.79" cy="58.53" r="1.96"/>
<polygon class="st8" points="38.39,75.16 39.01,76.41 40.39,76.61 39.39,77.59 39.63,78.97 38.39,78.32 37.15,78.97 37.39,77.59 
	36.39,76.61 37.77,76.41 "/>
<polygon class="st8" points="48.33,65.53 49.12,66.98 50.57,67.77 49.12,68.57 48.33,70.02 47.54,68.57 46.09,67.77 47.54,66.98 "/>
<polygon class="st8" points="57.86,56.33 57.88,57.65 59.2,57.49 58.28,58.45 59.32,59.26 58,59.29 58.16,60.6 57.21,59.69 
	56.39,60.73 56.36,59.41 55.05,59.57 55.97,58.61 54.92,57.8 56.25,57.77 56.09,56.46 57.04,57.37 "/>
<path class="st12" d="M29.62,68.39c-0.85,0.82-2.21,0.8-3.03-0.05c-0.66-0.68-0.64-1.76,0.04-2.42c0.54-0.53,1.41-0.51,1.94,0.03
	c0.42,0.44,0.41,1.13-0.03,1.55c-0.35,0.34-0.9,0.33-1.24-0.02c-0.27-0.28-0.26-0.72,0.02-0.99c0.22-0.22,0.58-0.21,0.79,0.01
	c0.17,0.18,0.17,0.46-0.01,0.64c-0.14,0.14-0.37,0.13-0.51-0.01c-0.11-0.11-0.11-0.3,0.01-0.41"/>
<path class="st10" d="M38.37,62.61c0.1,0.25,0.17,0.6-0.06,0.75c-0.1,0.07-0.24,0.06-0.36,0.06c-0.44-0.03-0.87-0.1-1.31-0.08
	s-0.89,0.12-1.23,0.4c-0.34,0.28-0.53,0.76-0.38,1.17c0.04,0.11,0.11,0.22,0.22,0.27c0.08,0.04,0.17,0.03,0.26,0.03
	c0.99-0.02,2.02-0.33,3.01-0.37c1.2-0.04,1.27,0.31,1.65,0.79c0.15,0.19,0.23,0.44,0.24,0.68c0,0.06,0,0.13-0.02,0.18
	c-0.03,0.08-0.1,0.13-0.17,0.18c-1,0.65-3.39-0.18-3.41,1.02"/>
</svg>
