<?xml version="1.0" encoding="utf-8"?>
<!-- Generator: Adobe Illustrator 26.0.2, SVG Export Plug-In . SVG Version: 6.00 Build 0)  -->
<svg version="1.1" id="Слой_3" xmlns="http://www.w3.org/2000/svg" xmlns:xlink="http://www.w3.org/1999/xlink" x="0px" y="0px"
	 viewBox="0 0 267.17 292" style="enable-background:new 0 0 267.17 292;" xml:space="preserve">
<style type="text/css">
	.st0{fill:url(#SVGID_1_);}
	.st1{fill:#955012;}
	.st2{fill:#24378D;}
	.st3{fill:#253B90;}
	.st4{fill:#69400F;}
	.st5{fill:#FFFFFF;}
	.st6{fill:url(#SVGID_00000179638976723438305670000007873920178208983476_);}
	.st7{fill:#627829;}
	.st8{fill:none;stroke:#955012;stroke-width:0.75;stroke-miterlimit:10;}
</style>
<linearGradient id="SVGID_1_" gradientUnits="userSpaceOnUse" x1="122.6366" y1="162" x2="122.6366" y2="162.3333">
	<stop  offset="0.4537" style="stop-color:#EEC583"/>
	<stop  offset="0.8412" style="stop-color:#EBB656"/>
	<stop  offset="1" style="stop-color:#E9AF41"/>
</linearGradient>
<path class="st0" d="M139.86,56.73c4.1-3.95-21.1-48.41-34.89-34.62C120.01,24.15,135.76,60.67,139.86,56.73z"/>
<path class="st1" d="M139.86,56.73l0.35,0.36c0.46-0.45,0.59-1.1,0.6-1.85c0-1.02-0.27-2.31-0.76-3.82
	c-1.7-5.29-6.06-13.33-11.43-20.11c-2.68-3.39-5.62-6.45-8.61-8.68c-2.99-2.23-6.05-3.65-9.01-3.65c-2.28,0-4.47,0.87-6.39,2.79
	l-0.71,0.71l1,0.14c3.39,0.45,6.93,2.81,10.38,6.14c5.17,4.99,10.11,12.13,14.21,18.03c2.05,2.95,3.9,5.59,5.48,7.51
	c0.79,0.96,1.52,1.74,2.19,2.31c0.68,0.55,1.3,0.92,1.98,0.93c0.39,0,0.78-0.16,1.07-0.44L139.86,56.73l-0.35-0.36
	c-0.13,0.12-0.22,0.15-0.37,0.16c-0.17,0-0.44-0.08-0.78-0.29c-0.64-0.4-1.48-1.22-2.42-2.35c-3.33-3.96-8.06-11.6-13.42-18.45
	c-2.68-3.43-5.52-6.66-8.45-9.15c-2.93-2.49-5.95-4.25-9.03-4.67l-0.07,0.5l0.35,0.35c1.76-1.76,3.66-2.49,5.68-2.5
	c3-0.01,6.35,1.69,9.65,4.43c4.95,4.1,9.76,10.48,13.32,16.51c1.78,3.02,3.24,5.95,4.26,8.46c1.02,2.5,1.58,4.61,1.57,5.87
	c0,0.63-0.14,1-0.29,1.13L139.86,56.73z"/>
<line class="st2" x1="188.33" y1="141.06" x2="234.28" y2="104.13"/>
<polyline class="st3" points="189.27,142.23 235.22,105.3 233.34,102.96 187.39,139.89 "/>
<line class="st2" x1="188.33" y1="141.06" x2="234.28" y2="104.13"/>
<polyline class="st3" points="189.27,142.23 235.22,105.3 233.34,102.96 187.39,139.89 "/>
<polygon class="st2" points="234.68,118.07 231.4,106.45 220.76,100.75 248.24,92.91 "/>
<polygon class="st3" points="234.68,118.07 236.12,117.66 232.67,105.43 224.73,101.18 245.24,95.33 233.36,117.36 234.68,118.07 
	236.12,117.66 234.68,118.07 236,118.78 251.25,90.5 216.79,100.33 230.13,107.48 234.24,122.04 236,118.78 "/>
<g>
	<defs>
		<path id="SVGID_00000114042602391565964980000007218408626928734359_" d="M80.17,155.61c11.75,17.13,46.28-1.8,29.87-22.94
			c13.07,0.89,19.16-7.73,19.65-16.34c0.48-8.5-4.5-17.01-13.62-16.37c15.45-8.6,2.15-35.46-17.52-26.9
			c-0.64-27.6,21.74-27.92,33.2-19.3c6.42,4.83,7.75,6.95,14.95-0.04c10.31-9.99,35.82-11.91,36.77,26.59
			c0.98,39.69,7.17,48.36,13.37,65.1c6.08,16.44,36.45,54.63,2.33,94.2s-88.8,35.74-119.73-8.54
			C48.52,186.8,80.17,155.61,80.17,155.61"/>
	</defs>
	
		<radialGradient id="SVGID_00000170249870996149676990000003031327998876126397_" cx="144.3316" cy="178.6346" r="93.716" gradientTransform="matrix(1 0 0 1.2782 0 -49.6996)" gradientUnits="userSpaceOnUse">
		<stop  offset="0.2008" style="stop-color:#EEC583"/>
		<stop  offset="0.7677" style="stop-color:#EBB656"/>
		<stop  offset="1" style="stop-color:#E9AF41"/>
	</radialGradient>
	
		<use xlink:href="#SVGID_00000114042602391565964980000007218408626928734359_"  style="overflow:visible;fill:url(#SVGID_00000170249870996149676990000003031327998876126397_);"/>
	<clipPath id="SVGID_00000015321255562170748820000007333517642982521786_">
		<use xlink:href="#SVGID_00000114042602391565964980000007218408626928734359_"  style="overflow:visible;"/>
	</clipPath>
</g>
<path class="st4" d="M100.62,199.91c0,0,0.04,0,0.12,0c0.25,0,0.87,0.01,1.71,0.1c1.9,0.22,4.92,0.9,7.29,2.9
	c2.37,2.01,4.15,5.3,3.64,10.95l0.66,0.06c0.54-5.84-1.35-9.44-3.89-11.57c-2.53-2.13-5.66-2.82-7.63-3.05
	c-1.16-0.13-1.92-0.11-1.93-0.11L100.62,199.91L100.62,199.91z"/>
<line class="st5" x1="49.09" y1="253.32" x2="110.49" y2="203.98"/>
<polyline class="st3" points="49.41,253.71 110.81,204.37 110.18,203.59 48.78,252.94 "/>
<polyline class="st3" points="50.03,254.49 111.43,205.15 109.55,202.81 48.16,252.16 "/>
<polygon class="st3" points="48.16,252.17 34.58,246.9 31.92,249.03 45.5,254.31 42.84,256.44 29.26,251.17 26.6,253.31 
	40.18,258.58 37.52,260.72 23.94,255.45 21.28,257.59 34.86,262.86 32.14,265.05 34,267.36 36.73,265.18 38.95,279.57 41.61,277.43 
	39.39,263.04 42.05,260.9 44.27,275.3 46.93,273.16 44.71,258.76 47.37,256.62 49.59,271.02 52.25,268.88 50.03,254.48 "/>
<g>
	<defs>
		<path id="SVGID_00000008837221226786168390000017163562536335808951_" d="M168.53,217.69c-3.91,0.55-7.81,1-11.69,1.37
			c-2.82,0.25-5.61,0.55-8.25,0.38c-0.66-0.04-1.31-0.11-1.95-0.22c-0.31-0.06-0.63-0.11-0.94-0.2c-0.15-0.04-0.3-0.08-0.46-0.11
			l-0.05-0.02c0.51-0.05,1.01-0.1,1.52-0.15c1.62-0.16,3.23-0.34,4.83-0.55c3.21-0.42,6.39-0.94,9.51-1.65
			c6.25-1.38,12.26-3.6,17.67-6.66c5.4-3.05,10.29-6.73,14.67-10.71c4.4-3.97,8.34-8.23,12-12.52c1.19-1.39,2.38-2.79,3.57-4.18
			c-1.58,0.92-3.17,1.84-4.75,2.77c-6.97,4.06-14.06,7.36-21.09,9.95c-3.51,1.3-7.01,2.42-10.47,3.39
			c-3.46,0.95-6.88,1.81-10.23,2.34c-3.35,0.53-6.67,0.75-9.83,0.37c-0.79-0.08-1.57-0.23-2.33-0.39c-0.38-0.09-0.76-0.18-1.13-0.27
			c-0.2-0.06-0.4-0.13-0.6-0.19c-0.33-0.13-1.38-0.45-0.39-0.47c0.28-0.04,0.56-0.09,0.84-0.13c0.69-0.13,1.38-0.26,2.06-0.4
			c0.74-0.14,1.48-0.29,2.21-0.43c0.72-0.17,1.44-0.34,2.15-0.51c1.43-0.32,2.81-0.71,4.17-1.1c1.36-0.36,2.68-0.8,3.97-1.23
			c10.34-3.45,18.51-8,24.59-12.15c6.09-4.17,10.15-7.9,12.57-10.23c1.55-1.57,2.34-2.41,2.36-2.52c0.02-0.12-0.85,0.63-2.62,2.24
			c-2.51,2.2-6.65,5.79-12.77,9.8c-6.11,3.99-14.27,8.36-24.52,11.66c-1.28,0.41-2.58,0.83-3.94,1.17
			c-1.34,0.37-2.71,0.74-4.12,1.04c-0.7,0.16-1.41,0.32-2.13,0.48c-0.72,0.13-1.45,0.27-2.18,0.4c-0.78,0.14-1.57,0.28-2.36,0.42
			c-1.14,0.19-2.28,0.37-3.43,0.56c-0.58,0.1-1.16,0.19-1.75,0.29c-0.15,0.02-0.29,0.05-0.44,0.07l-0.11,0.02l0.09,0.05l0.2,0.1
			c0.27,0.13,0.54,0.27,0.81,0.4c1.11,0.56,2.12,1.03,3.28,1.52c0.29,0.12,0.62,0.22,0.95,0.33c0.23,0.08,0.47,0.15,0.7,0.23
			c0.4,0.1,0.81,0.2,1.21,0.31c0.81,0.17,1.64,0.34,2.48,0.43c3.35,0.43,6.81,0.22,10.26-0.29c3.46-0.52,6.92-1.36,10.43-2.3
			c3.51-0.95,7.06-2.07,10.62-3.36c7.14-2.58,14.34-5.89,21.43-9.97c-0.39-0.47-0.79-0.94-1.18-1.42
			c-3.64,4.23-7.54,8.41-11.88,12.29c-4.31,3.9-9.09,7.47-14.34,10.41c-5.25,2.95-11.04,5.07-17.14,6.41
			c-3.05,0.69-6.17,1.19-9.32,1.6c-1.58,0.2-3.17,0.38-4.77,0.53c-1.12,0.1-2.24,0.2-3.36,0.3c-1.62,0.13-3.24,0.26-4.86,0.39
			c0.81,0.56,1.64,1.12,2.46,1.69c0.42,0.27,0.83,0.55,1.31,0.82c0.56,0.24,1.02,0.55,1.67,0.74c0.31,0.11,0.61,0.21,0.92,0.32
			c0.23,0.07,0.37,0.1,0.56,0.15c0.35,0.1,0.71,0.15,1.07,0.22c0.72,0.12,1.44,0.21,2.17,0.25c2.9,0.18,5.76-0.13,8.58-0.38
			c3.91-0.36,7.84-0.82,11.79-1.37c3.94-0.55,7.92-1.18,11.88-2.18c2.75-0.7,5.46-1.57,8.06-2.71c2.59-1.15,5.05-2.51,7.39-3.97
			c4.69-2.91,9.02-6.12,13.54-8.68c-0.45-0.51-0.91-1.02-1.36-1.53c-3.82,5.17-8.44,9.63-13.42,13.45
			c-4.99,3.83-10.33,7.05-15.76,9.87c-5.44,2.82-10.96,5.27-16.43,7.57c-2.74,1.14-5.46,2.28-8.14,3.4
			c-0.87,0.36-1.74,0.72-2.61,1.08c-0.64,0.26-1.27,0.53-1.91,0.79c-0.59,0.26-1.18,0.52-1.78,0.77c-0.29,0.13-0.59,0.26-0.88,0.39
			c-0.28,0.08,0.02,0.1,0.16,0.14c0.16,0.04,0.33,0.07,0.49,0.11c0.64,0.14,1.28,0.28,1.92,0.42c1.25,0.28,2.65,0.55,3.78,0.75
			c2.89,0.48,5.71,0.77,8.55,0.9c2.82,0.12,5.67,0.05,8.44-0.45c2.79-0.5,5.41-1.51,7.83-2.74c2.42-1.24,4.66-2.67,6.79-4.19
			c4.25-3.04,8.02-6.4,11.67-9.6c3.64-3.2,7.19-6.25,10.85-8.83c0.26-0.18,0.53-0.36,0.79-0.55c0.13-0.1,0.27-0.18,0.41-0.27
			l0.21-0.14l0.05-0.03l-0.02,0.05l-0.05,0.11c-0.06,0.15-0.13,0.3-0.19,0.44c-0.09,0.17-0.03,0.9-0.12,1.07
			c-0.23,0.47,0.36,0.95,0.09,1.39c-0.52,0.91-2.05,6.55-2.64,7.39c-2.39,3.35-2.78,4.22-5.6,6.72
			c-5.73,4.95-12.03,7.75-17.02,11.11c-5.01,3.32-8.65,4.1-12.49,5.9c-3.82,1.84-9.79,2.19-12.01,2.81
			c-1.15,0.33-2.01,0.53-2.57,0.66c-0.56,0.14-0.81,0.23-0.75,0.25c0.05,0.02,0.36-0.01,0.93-0.09c0.57-0.07,1.4-0.21,2.48-0.46
			c2.26-0.52,7.06-0.68,11.21-1.82c4.13-1.13,9.68-2.34,14.77-5.6c5.06-3.28,10.39-6.83,16.28-11.8c2.9-2.52,3.39-3.43,5.91-6.87
			c0.62-0.86,2.18-6.54,2.73-7.48c0.29-0.46-0.29-0.95-0.04-1.44c0.2-0.38,0.26-1.33,0.47-1.71c0.18-0.39,0.37-0.78,0.55-1.18
			c0.37-0.82,0.73-1.64,1.1-2.47c0.09-0.21,0.19-0.42,0.28-0.63c0.03-0.09,0.12-0.24,0.11-0.28c-0.1,0.06-0.19,0.12-0.29,0.17
			c-0.38,0.23-0.77,0.47-1.15,0.7c-0.77,0.47-1.55,0.95-2.33,1.43c-0.39,0.23-0.79,0.51-1.19,0.78c-0.27,0.18-0.54,0.36-0.81,0.54
			c-3.77,2.61-7.38,5.67-11.05,8.85c-3.67,3.18-7.43,6.47-11.6,9.41c-4.16,2.9-8.76,5.63-13.93,6.54c-2.59,0.46-5.29,0.52-8.03,0.39
			c-2.74-0.13-5.54-0.43-8.27-0.9c-0.11-0.02-0.23-0.05-0.34-0.07c-0.04-0.02-0.2-0.02-0.07-0.05c0.54-0.22,1.07-0.44,1.62-0.66
			c2.7-1.11,5.42-2.24,8.17-3.37c5.49-2.3,11.07-4.75,16.59-7.59c5.52-2.84,10.97-6.11,16.09-10.03c5.11-3.91,9.89-8.49,13.85-13.85
			c0.98-1.33,1.96-2.65,2.95-3.98c-1.44,0.81-2.87,1.63-4.31,2.44c-4.67,2.65-9.02,5.87-13.62,8.71c-2.29,1.43-4.66,2.74-7.13,3.83
			c-2.47,1.08-5.07,1.92-7.73,2.59"/>
	</defs>
	
		<radialGradient id="SVGID_00000173125563464750982740000013109088418833990551_" cx="181.9986" cy="207.1658" r="50.6069" fx="186.363" fy="256.9115" gradientTransform="matrix(0.9072 0.4206 -0.4206 0.9072 104.5925 -54.6557)" gradientUnits="userSpaceOnUse">
		<stop  offset="0.19" style="stop-color:#EAD180"/>
		<stop  offset="0.7728" style="stop-color:#E6C350"/>
		<stop  offset="1" style="stop-color:#E4BE3A"/>
	</radialGradient>
	
		<use xlink:href="#SVGID_00000008837221226786168390000017163562536335808951_"  style="overflow:visible;fill:url(#SVGID_00000173125563464750982740000013109088418833990551_);"/>
	<clipPath id="SVGID_00000178188747361937695100000007224641802412485032_">
		<use xlink:href="#SVGID_00000008837221226786168390000017163562536335808951_"  style="overflow:visible;"/>
	</clipPath>
</g>
<linearGradient id="SVGID_00000130634601650017577230000001936789711253267353_" gradientUnits="userSpaceOnUse" x1="143.0931" y1="32.3672" x2="212.2948" y2="32.3672">
	<stop  offset="0" style="stop-color:#BAC121"/>
	<stop  offset="1" style="stop-color:#A39A19"/>
</linearGradient>
<path style="fill:url(#SVGID_00000130634601650017577230000001936789711253267353_);" d="M212.29,31.7
	c-3.63,17.74-26.88,19.2-39.15,13.14c-9.22-4.55-23.08-2.63-30.05,5.08c2.92-29.27,71.89-52.41,69.07-17.73"/>
<g>
	<g>
		<path class="st7" d="M143.81,48.98c3.83-8,9.18-10.53,17.48-11.75c6.79-1,13.63-1.56,20.43-2.47c9.89-1.33,20.99-2.7,27.42-11.19
			c0.13-0.17,0.78-1.43,0.44-0.97c-5.33,7.03-14.04,8.83-22.26,10.16c-7.74,1.25-15.56,1.88-23.33,2.91
			c-5.81,0.77-12.04,1.63-16.14,6.27c-1.95,2.21-3.26,5.01-4.52,7.63C142.93,50.4,143.7,49.21,143.81,48.98L143.81,48.98z"/>
	</g>
</g>
<g>
	<g>
		<path class="st7" d="M201.36,31.02c0.33,0.72,0.67,1.46,1.2,2.06c0.58,0.65,1.33,0.98,2.19,1.1c1.81,0.25,3.9,0.36,5.63-0.33
			c0.28-0.11,0.04-1.27-0.03-1.24c-1.67,0.66-3.57,0.54-5.32,0.36c-0.86-0.09-1.67-0.31-2.29-0.94c-0.58-0.59-0.93-1.34-1.27-2.08
			c-0.11-0.24-0.17,0.15-0.18,0.23C201.26,30.42,201.25,30.78,201.36,31.02L201.36,31.02z"/>
	</g>
</g>
<g>
	<g>
		<path class="st7" d="M196.17,31.83c0.1,1.29,0.79,2.28,1.58,3.26c0.8,0.99,1.73,1.85,2.88,2.42c2.31,1.15,5.01,1.13,7.54,1.1
			c0.19,0,0.17-1.24-0.03-1.24c-2.23,0.03-4.55,0.04-6.67-0.73c-1.09-0.4-2.05-1.02-2.87-1.84c-0.43-0.43-0.81-0.91-1.18-1.39
			c-0.42-0.56-0.94-1.2-1-1.92c-0.01-0.11-0.02-0.48-0.18-0.43C196.11,31.11,196.17,31.75,196.17,31.83L196.17,31.83z"/>
	</g>
</g>
<g>
	<g>
		<path class="st7" d="M191.95,35.08c-0.2,1.06-0.1,2.21,0.36,3.19c0.47,0.99,1.27,1.74,2.17,2.33c0.94,0.61,1.97,1.09,2.99,1.55
			c1.14,0.52,2.31,0.96,3.54,1.22c0.11,0.02,0.24-1.18-0.03-1.24c-1.91-0.42-3.73-1.25-5.45-2.15c-0.82-0.43-1.62-0.93-2.27-1.6
			c-0.57-0.59-1.27-1.55-1.1-2.42c0.05-0.27,0.07-0.62-0.02-0.88C192.07,34.89,191.99,34.84,191.95,35.08L191.95,35.08z"/>
	</g>
</g>
<g>
	<g>
		<path class="st7" d="M185.67,36.08c0.29,1.14,0.58,2.3,1.1,3.35c0.45,0.91,1.07,1.71,1.8,2.41c1.48,1.39,3.32,2.33,5.12,3.23
			c0.1,0.05,0.12-0.58,0.12-0.62c0-0.15,0.01-0.53-0.15-0.62c-1.74-0.87-3.5-1.78-4.95-3.1c-0.7-0.64-1.32-1.39-1.76-2.23
			c-0.54-1.03-0.83-2.18-1.11-3.3c-0.06-0.23-0.13-0.18-0.19,0C185.57,35.46,185.6,35.83,185.67,36.08L185.67,36.08z"/>
	</g>
</g>
<g>
	<g>
		<path class="st7" d="M179.41,37.82c1.48,3.88,4.3,7.14,7.92,9.16c0.09,0.05,0.12-0.58,0.12-0.62c0-0.16,0.01-0.52-0.15-0.62
			c-3.54-1.98-6.33-5.2-7.78-9c-0.09-0.25-0.17,0.16-0.18,0.23C179.31,37.24,179.32,37.56,179.41,37.82L179.41,37.82z"/>
	</g>
</g>
<g>
	<g>
		<path class="st7" d="M172.58,37.37c1.16,1.76,2.33,3.53,3.49,5.29c0.79,1.2,1.79,2.93,3.45,2.84c0.21-0.01,0.16-1.25-0.03-1.24
			c-1.68,0.09-2.67-1.72-3.46-2.93c-1.13-1.72-2.27-3.44-3.4-5.16c-0.09-0.14-0.15,0.41-0.16,0.44
			C172.46,36.84,172.44,37.17,172.58,37.37L172.58,37.37z"/>
	</g>
</g>
<g>
	<g>
		<path class="st7" d="M166.98,37.17c0.13,1.17,0.52,2.27,1.24,3.2c0.68,0.86,1.6,1.52,2.64,1.86c0.12,0.04,0.12-0.57,0.12-0.62
			c0-0.13,0.01-0.56-0.15-0.62c-0.96-0.31-1.8-0.9-2.44-1.67c-0.59-0.7-1.07-1.63-1.16-2.5c-0.01-0.09-0.03-0.5-0.18-0.43
			C166.92,36.48,166.97,37.07,166.98,37.17L166.98,37.17z"/>
	</g>
</g>
<g>
	<g>
		<path class="st7" d="M160.8,38.69c0.61,1.57,1.86,2.85,3.42,3.48c0.11,0.04,0.12-0.57,0.12-0.62c-0.01-0.15-0.01-0.3-0.05-0.44
			c-0.02-0.06-0.03-0.15-0.1-0.18c-1.49-0.6-2.7-1.82-3.28-3.32c-0.1-0.24-0.17,0.16-0.18,0.23
			C160.71,38.12,160.7,38.44,160.8,38.69L160.8,38.69z"/>
	</g>
</g>
<g>
	<g>
		<path class="st7" d="M195.3,29.81c1.86-3.75,4.62-7.01,8.01-9.47c0.15-0.11,0.09-0.61,0.08-0.76c-0.01-0.07-0.04-0.53-0.18-0.43
			c-3.39,2.46-6.15,5.71-8.01,9.47c-0.11,0.23-0.1,0.52-0.08,0.76C195.13,29.42,195.24,29.93,195.3,29.81L195.3,29.81z"/>
	</g>
</g>
<g>
	<g>
		<path class="st7" d="M191.01,30.94c1.02-5.18,4.82-9.24,8.8-12.45c0.23-0.18-0.02-1.26-0.1-1.19c-4.1,3.3-7.86,7.45-8.91,12.77
			c-0.05,0.25-0.08,0.64,0.02,0.88C190.9,31.12,190.96,31.2,191.01,30.94L191.01,30.94z"/>
	</g>
</g>
<g>
	<g>
		<path class="st7" d="M186.14,31.67c-0.21-1.45,0.91-3.05,1.62-4.23c0.62-1.04,1.29-2.06,2-3.04c1.46-2.04,3.1-3.95,4.88-5.71
			c0.22-0.22-0.05-1.25-0.1-1.19c-2.18,2.17-4.15,4.55-5.85,7.11c-1.53,2.31-3.2,4.8-2.77,7.7c0.03,0.18,0.05,0.35,0.19,0.22
			C186.25,32.4,186.16,31.83,186.14,31.67L186.14,31.67z"/>
	</g>
</g>
<g>
	<g>
		<path class="st7" d="M180.69,33.16c0.13-2.76,1.42-5.33,2.94-7.58c0.72-1.06,1.5-2.07,2.29-3.07c0.79-1,1.56-2.03,2.58-2.82
			c0.23-0.18-0.01-1.26-0.1-1.19c-1.11,0.86-1.95,2.02-2.81,3.12c-0.92,1.17-1.82,2.36-2.61,3.62c-1.44,2.31-2.43,4.85-2.55,7.59
			C180.4,33.28,180.65,34.03,180.69,33.16L180.69,33.16z"/>
	</g>
</g>
<g>
	<g>
		<path class="st7" d="M173.47,33.51c-0.17-1.29,0.57-2.64,1.24-3.69c0.6-0.95,1.3-1.83,2.01-2.71c1.52-1.87,3.16-3.63,4.92-5.28
			c0.15-0.14,0.09-0.58,0.08-0.76c-0.01-0.06-0.06-0.54-0.18-0.43c-2.15,2.02-4.14,4.21-5.93,6.56c-1.57,2.07-2.7,4.28-2.35,6.94
			c0.02,0.19,0.05,0.34,0.19,0.22C173.58,34.25,173.48,33.66,173.47,33.51L173.47,33.51z"/>
	</g>
</g>
<g>
	<g>
		<path class="st7" d="M166.64,35.96c0.53-0.94,0.24-2.01,0.57-2.99c0.39-1.16,1.22-2.19,1.89-3.2c1.48-2.23,2.95-4.45,4.43-6.68
			c0.13-0.2,0.1-0.54,0.08-0.76c0-0.05-0.09-0.55-0.18-0.43c-1.48,2.23-2.95,4.45-4.43,6.68c-0.63,0.95-1.34,1.88-1.79,2.93
			c-0.2,0.47-0.34,0.96-0.4,1.46c-0.07,0.61,0.04,1.25-0.27,1.8c-0.12,0.21-0.1,0.53-0.08,0.76
			C166.47,35.57,166.57,36.08,166.64,35.96L166.64,35.96z"/>
	</g>
</g>
<g>
	<g>
		<path class="st7" d="M159.86,36.07c1.21-3.76,3.01-7.29,5.33-10.49c0.14-0.19,0.1-0.55,0.08-0.76c0-0.05-0.09-0.55-0.18-0.43
			c-2.35,3.23-4.17,6.82-5.4,10.62c-0.08,0.26-0.07,0.58-0.03,0.85C159.68,35.93,159.78,36.32,159.86,36.07L159.86,36.07z"/>
	</g>
</g>
<path class="st8" d="M106.06,22.05c1.79-0.56,3.76-0.36,5.53,0.27s3.37,1.66,4.89,2.77c4.49,3.29,8.42,7.35,11.56,11.95
	c0.81,1.18,1.57,2.4,2.32,3.62c1.72,2.77,3.44,5.53,5.15,8.3c1.53,2.47,3.09,5,3.71,7.84"/>
</svg>
